<mxfile host="app.diagrams.net" modified="2023-09-17T22:35:31.136Z" agent="Mozilla/5.0 (Windows NT 10.0; Win64; x64) AppleWebKit/537.36 (KHTML, like Gecko) Chrome/115.0.0.0 Safari/537.36" version="21.7.5" etag="Eubb24PQI78G8D7KsYFO" type="github">
  <diagram name="PÃ¡gina-1" id="NQMU4q9Y0qhl5RLSYpsB">
    <mxGraphModel>
      <root>
        <mxCell id="0" />
        <mxCell id="1" parent="0" />
      </root>
    </mxGraphModel>
  </diagram>
</mxfile>
